PathFileType	4	(X/Y/Z)	RBDS022\RBDS022runT45.trc
DataRate	CameraRate	NumFrames	NumMarkers	Units	OrigDataRate	OrigDataStartFrame	OrigNumFrames
150.000000	150.000000	4	32	mm	150.000000	2250	4500
Frame#	Time	L.ASIS			L.Heel.Bottom			L.Heel.Lateral			L.Heel.Top			L.Iliac.Crest			L.MT1			L.MT5			L.PSIS			L.Shank.Bottom.Lateral			L.Shank.Bottom.Medial			L.Shank.Top.Lateral			L.Shank.Top.Medial			L.Thigh.Bottom.Lateral			L.Thigh.Bottom.Medial			L.Thigh.Top.Lateral			L.Thigh.Top.Medial			R.ASIS			R.Heel.Bottom			R.Heel.Lateral			R.Heel.Top			R.Iliac.Crest			R.MT1			R.MT5			R.PSIS			R.Shank.Bottom.Lateral			R.Shank.Bottom.Medial			R.Shank.Top.Lateral			R.Shank.Top.Medial			R.Thigh.Bottom.Lateral			R.Thigh.Bottom.Medial			R.Thigh.Top.Lateral			R.Thigh.Top.Medial			
		X1	Y1	Z1	X2	Y2	Z2	X3	Y3	Z3	X4	Y4	Z4	X5	Y5	Z5	X6	Y6	Z6	X7	Y7	Z7	X8	Y8	Z8	X9	Y9	Z9	X10	Y10	Z10	X11	Y11	Z11	X12	Y12	Z12	X13	Y13	Z13	X14	Y14	Z14	X15	Y15	Z15	X16	Y16	Z16	X17	Y17	Z17	X18	Y18	Z18	X19	Y19	Z19	X20	Y20	Z20	X21	Y21	Z21	X22	Y22	Z22	X23	Y23	Z23	X24	Y24	Z24	X25	Y25	Z25	X26	Y26	Z26	X27	Y27	Z27	X28	Y28	Z28	X29	Y29	Z29	X30	Y30	Z30	X31	Y31	Z31	X32	Y32	Z32	

2251	15	2148.481472975292	951.5388034570818	866.5881192315243	2140.602597358742	25.81060736721067	964.5899164343665	2167.665970949805	48.14757219267914	917.2486393391903	2150.548615594802	70.4285436455509	966.4784234502617	2063.740181574055	1022.566154403052	829.8775407335871	2362.695840198262	48.46427032991183	979.1704861545188	2318.341456712119	35.37878322865901	870.9921622489514	1989.716235731602	972.6840579554872	961.5991594756181	2205.28408626949	162.6432319395863	887.2777978951532	2166.901977694369	171.1552389641848	926.0429752624534	2198.265636999613	239.3833808199515	865.2672039419806	2161.361870542615	248.5974028377482	903.3157477508418	2196.36671228409	594.571663049417	825.6992427032573	2139.79970601205	572.3174568959736	865.5628828730077	2144.314177050613	688.516614402185	804.3413458991869	2091.583000492611	668.7371083890667	844.3625719825137	2177.230070716322	931.3331507564619	1100.026662861363	1623.584414998568	528.1874030695328	997.896751849868	1636.47063956292	506.5847822583044	1050.474426549209	1664.060155931204	511.1517625187895	1002.481532642208	2137.568961733691	1005.732256083053	1142.859173946291	1591.566234138356	316.0458666536646	1006.821345275966	1589.79121180512	362.831898123089	1110.903496446261	2009.931270004219	969.6707241087998	1045.931545209486	1737.646243896196	466.9620314314181	1083.689822465885	1745.775331683408	501.5504116321162	1046.666030730868	1819.670007322081	471.8536472008705	1104.422624408805	1823.16696041086	510.5950848489242	1068.436513329962	2088.414945205333	542.6710255160701	1147.355319053544	2029.235938209583	549.4270117005256	1107.941506897582	2088.699585548352	652.0782899717552	1165.028095757572	2028.537529044322	656.7842218180714	1131.806462010224	
2252	15.00666666666667	2145.250521323343	947.5966183027432	864.5657461383804	2110.814460368797	26.81705636389451	965.0058105773479	2138.360750654062	49.30029903285933	917.977170097382	2122.252828814313	71.39519435354659	967.7985892599457	2059.079643230652	1017.040764681423	830.2236777264286	2334.627220599593	43.61293316140135	979.6852636803289	2288.904536875079	33.68870780311348	870.9259011723689	1987.715848826181	968.5954461953842	963.49640645111	2184.217170805283	161.5286970823004	888.6049459791132	2145.50443044127	172.5707159288915	926.4402969844463	2181.819662093982	238.474067544606	865.8051139410458	2144.915385326418	250.097615589552	903.2311930709576	2192.407311560858	590.6459963426515	825.0716559728786	2136.126182020097	568.6884759344565	865.5791173659636	2140.431429041625	684.6319367341351	803.6377690590674	2087.940674570012	665.1651134710415	844.1648448861264	2176.484423883112	926.3696664513402	1098.282572985754	1640.004937865357	526.6094422854868	999.0033252085439	1653.338697440559	505.1093090318188	1051.423400140766	1680.588772426831	509.6467240183619	1003.345687799421	2140.368644198662	999.2617015744935	1142.630779863523	1608.605547027538	314.2856033634757	1008.204839828151	1607.454328465736	361.1712066065397	1112.278839171284	2008.494220740051	965.3207240303527	1047.238508895239	1755.000740788225	465.1156047409647	1084.361064535731	1763.600537577316	499.3670401575134	1047.122913796675	1837.097057202659	469.0912747511954	1105.043727357005	1841.137818905022	507.5137878040712	1068.733747271565	2100.439158183901	538.0131744999579	1148.34529979937	2041.061154580527	542.0005570764911	1108.904489222529	2096.352781341134	647.4617205706428	1165.308610616594	2035.991167850663	649.4506233665049	1132.275833022753	
2253	15.01333333333333	2142.147849594318	943.8154934824466	862.6664739999417	2080.807811536315	27.71178179106162	965.0965847945262	2108.708405527636	50.43783937723123	918.3446651089266	2093.291872314421	72.24697845948403	968.601451152645	2054.525768740909	1011.890074585143	830.5462409298957	2305.618437391977	40.51915947766638	980.186129271367	2259.023224747156	33.11610343749678	870.9185913424117	1985.768594803996	965.0751520424717	965.0177028036402	2162.110473313944	160.8252138515998	889.6693502731644	2123.151441797412	174.2956928771663	926.5759697953038	2164.253520994956	237.7788750864411	866.2012742577115	2127.464107518933	251.6941764809903	903.0176035071663	2187.690640819583	586.6320656037689	824.4989102211443	2131.513825621702	565.1945272833335	865.5159452684164	2136.219743987318	680.8804982535544	802.9500752104007	2083.823540214179	661.9061993003842	843.874288265807	2175.427708729743	921.7173567212269	1096.643486129836	1656.1352649909	522.8318130441869	1000.514340259257	1670.192991087214	501.4895013178968	1052.709359379132	1696.933900289729	506.2866175503141	1004.508367820784	2142.494906985271	993.4277178158831	1142.313036272506	1627.007464896974	310.1426685910999	1009.865512431649	1626.363112460759	357.0674296700723	1113.978428486681	2006.894807097729	961.6412034233999	1048.204227357756	1772.715624771869	461.9058215511549	1085.253665877917	1781.485826343532	495.9336071254016	1047.834942817699	1854.88481349679	465.5314060043556	1105.823603090156	1859.152876113359	503.70511852546	1069.2239155878	2113.027395788589	534.3467412746926	1149.299487778309	2053.437987790686	535.4249963088863	1110.054530279904	2104.413535700491	643.6247339545392	1165.608795036719	2043.833346875692	642.7770489165175	1133.030633117678	
2254	15.02	2139.309314880919	940.3243927631513	860.9636296754671	2050.752120728315	28.48973108600079	964.973079014227	2078.883435534547	51.50847160662511	918.4432262966225	2063.884406825643	72.98619567504595	968.9884560518135	2050.265615177493	1007.327895237526	830.821220701052	2275.974390711829	38.90380051778638	980.6339887808767	2228.898566600325	33.37788971545512	870.9646156295443	1983.927478548391	962.2030050389748	966.0932348439562	2139.037888195807	160.4193307218052	890.5018915070007	2099.955761082838	176.1674848278024	926.5419864767921	2145.531336800026	237.1801251770522	866.5150343162753	2108.988689787771	253.2305581830988	902.7731571838369	2182.037497786584	582.5672580449234	824.0788597428002	2125.741595301426	561.9129546355745	865.4081160910794	2131.583683874986	677.3243800937947	802.3542134209525	2079.109666692019	659.0662195316582	843.5370937135621	2174.091305356141	917.5262714335126	1095.203382539674	1671.878926350827	516.8979103682834	1002.424192629095	1686.919690273466	495.7656839969651	1054.329701264722	1712.987610822009	501.123315725751	1005.979490401653	2143.627010375467	988.4100912434858	1141.957033623863	1646.710464599351	303.7057815427862	1011.703243882597	1646.406823046217	350.5743904329616	1115.914417062803	2005.181913380062	958.6648547516131	1048.784745788577	1790.659192541938	457.4134883670544	1086.361109985163	1799.274115596209	491.3464803973569	1048.805130288865	1872.89805682703	461.3002868996718	1106.747805511899	1877.045890012654	499.3110543602206	1069.9123069973	2126.087463887429	531.835984872464	1150.186441746646	2066.312465157515	529.8967458866952	1111.328279223079	2112.832769078552	640.7095391064546	1165.910131980191	2052.051053112212	636.9312764067514	1134.015611177111	
